<?xml version="1.0" standalone="no"?>
<!DOCTYPE svg PUBLIC "-//W3C//DTD SVG 20010904//EN"
 "http://www.w3.org/TR/2001/REC-SVG-20010904/DTD/svg10.dtd">
<svg version="1.0" xmlns="http://www.w3.org/2000/svg"
 width="64.000000pt" height="64.000000pt" viewBox="0 0 64.000000 64.000000"
 preserveAspectRatio="xMidYMid meet">

<g transform="translate(0.000000,64.000000) scale(0.100000,-0.100000)"
fill="#000000" stroke="none">
<path d="M350 465 c-152 -151 -157 -157 -179 -226 -15 -47 -19 -75 -13 -81 6
-6 34 -2 81 13 69 22 75 27 226 179 172 174 179 187 126 241 -54 53 -67 46
-241 -126z m221 83 c9 -17 -7 -38 -137 -169 -98 -98 -159 -153 -182 -160 -18
-6 -36 -9 -39 -6 -3 3 0 21 6 39 7 23 62 84 160 181 153 152 167 161 192 115z"/>
<path d="M63 570 c-39 -16 -43 -39 -43 -278 0 -298 -25 -272 257 -272 272 0
255 -11 251 165 -3 108 -6 130 -18 130 -12 0 -16 -21 -18 -120 -2 -80 -7 -122
-15 -127 -7 -4 -98 -8 -203 -8 -151 0 -194 3 -203 14 -8 9 -11 79 -9 232 l3
219 145 5 c137 5 145 6 145 25 0 19 -7 20 -135 22 -74 1 -145 -2 -157 -7z"/>
</g>
</svg>
